<?xml version="1.0" encoding="UTF-8" standalone="no"?>
<!DOCTYPE svg PUBLIC "-//W3C//DTD SVG 1.1//EN"
 "http://www.w3.org/Graphics/SVG/1.1/DTD/svg11.dtd">
<!-- Generated by graphviz version 2.43.0 (0)
 -->
<!-- Title: %3 Pages: 1 -->
<svg width="1127pt" height="644pt"
 viewBox="0.00 0.00 1126.50 644.00" xmlns="http://www.w3.org/2000/svg" xmlns:xlink="http://www.w3.org/1999/xlink">
<g id="graph0" class="graph" transform="scale(1 1) rotate(0) translate(4 640)">
<title>%3</title>
<polygon fill="white" stroke="transparent" points="-4,4 -4,-640 1122.5,-640 1122.5,4 -4,4"/>
<!-- suppliers -->
<g id="node1" class="node">
<title>suppliers</title>
<polygon fill="none" stroke="black" points="791.5,-173 663.5,-173 663.5,0 791.5,0 791.5,-173"/>
<text text-anchor="middle" x="727.5" y="-157.8" font-family="Times,serif" font-size="14.00">suppliers</text>
<text text-anchor="middle" x="727.5" y="-142.8" font-family="Times,serif" font-size="14.00">id</text>
<text text-anchor="middle" x="727.5" y="-127.8" font-family="Times,serif" font-size="14.00">code</text>
<text text-anchor="middle" x="727.5" y="-112.8" font-family="Times,serif" font-size="14.00">name</text>
<text text-anchor="middle" x="727.5" y="-97.8" font-family="Times,serif" font-size="14.00">email</text>
<text text-anchor="middle" x="727.5" y="-82.8" font-family="Times,serif" font-size="14.00">phone</text>
<text text-anchor="middle" x="727.5" y="-67.8" font-family="Times,serif" font-size="14.00">address</text>
<text text-anchor="middle" x="727.5" y="-52.8" font-family="Times,serif" font-size="14.00">country</text>
<text text-anchor="middle" x="727.5" y="-37.8" font-family="Times,serif" font-size="14.00">currency</text>
<text text-anchor="middle" x="727.5" y="-22.8" font-family="Times,serif" font-size="14.00">payment_terms</text>
<text text-anchor="middle" x="727.5" y="-7.8" font-family="Times,serif" font-size="14.00">is_active</text>
</g>
<!-- categories -->
<g id="node2" class="node">
<title>categories</title>
<polygon fill="none" stroke="black" points="632,-128 541,-128 541,-45 632,-45 632,-128"/>
<text text-anchor="middle" x="586.5" y="-112.8" font-family="Times,serif" font-size="14.00">categories</text>
<text text-anchor="middle" x="586.5" y="-97.8" font-family="Times,serif" font-size="14.00">id</text>
<text text-anchor="middle" x="586.5" y="-82.8" font-family="Times,serif" font-size="14.00">name</text>
<text text-anchor="middle" x="586.5" y="-67.8" font-family="Times,serif" font-size="14.00">slug</text>
<text text-anchor="middle" x="586.5" y="-52.8" font-family="Times,serif" font-size="14.00">parent_id</text>
</g>
<!-- products -->
<g id="node3" class="node">
<title>products</title>
<polygon fill="none" stroke="black" points="664.5,-412 508.5,-412 508.5,-209 664.5,-209 664.5,-412"/>
<text text-anchor="middle" x="586.5" y="-396.8" font-family="Times,serif" font-size="14.00">products</text>
<text text-anchor="middle" x="586.5" y="-381.8" font-family="Times,serif" font-size="14.00">id</text>
<text text-anchor="middle" x="586.5" y="-366.8" font-family="Times,serif" font-size="14.00">sku</text>
<text text-anchor="middle" x="586.5" y="-351.8" font-family="Times,serif" font-size="14.00">name</text>
<text text-anchor="middle" x="586.5" y="-336.8" font-family="Times,serif" font-size="14.00">description</text>
<text text-anchor="middle" x="586.5" y="-321.8" font-family="Times,serif" font-size="14.00">category_id</text>
<text text-anchor="middle" x="586.5" y="-306.8" font-family="Times,serif" font-size="14.00">supplier_id</text>
<text text-anchor="middle" x="586.5" y="-291.8" font-family="Times,serif" font-size="14.00">supplier_ref</text>
<text text-anchor="middle" x="586.5" y="-276.8" font-family="Times,serif" font-size="14.00">unit_weight</text>
<text text-anchor="middle" x="586.5" y="-261.8" font-family="Times,serif" font-size="14.00">unit_type</text>
<text text-anchor="middle" x="586.5" y="-246.8" font-family="Times,serif" font-size="14.00">min_order_quantity</text>
<text text-anchor="middle" x="586.5" y="-231.8" font-family="Times,serif" font-size="14.00">lead_time_days</text>
<text text-anchor="middle" x="586.5" y="-216.8" font-family="Times,serif" font-size="14.00">is_active</text>
</g>
<!-- products&#45;&gt;suppliers -->
<g id="edge2" class="edge">
<title>products&#45;&gt;suppliers</title>
<path fill="none" stroke="black" d="M650.4,-208.89C656.14,-199.85 661.94,-190.72 667.65,-181.73"/>
<polygon fill="black" stroke="black" points="670.68,-183.49 673.09,-173.17 664.77,-179.74 670.68,-183.49"/>
</g>
<!-- products&#45;&gt;categories -->
<g id="edge1" class="edge">
<title>products&#45;&gt;categories</title>
<path fill="none" stroke="black" d="M586.5,-208.89C586.5,-184.46 586.5,-159.34 586.5,-138.34"/>
<polygon fill="black" stroke="black" points="590,-138.07 586.5,-128.07 583,-138.07 590,-138.07"/>
</g>
<!-- purchase_conditions -->
<g id="node4" class="node">
<title>purchase_conditions</title>
<polygon fill="none" stroke="black" points="1118.5,-613.5 956.5,-613.5 956.5,-470.5 1118.5,-470.5 1118.5,-613.5"/>
<text text-anchor="middle" x="1037.5" y="-598.3" font-family="Times,serif" font-size="14.00">purchase_conditions</text>
<text text-anchor="middle" x="1037.5" y="-583.3" font-family="Times,serif" font-size="14.00">id</text>
<text text-anchor="middle" x="1037.5" y="-568.3" font-family="Times,serif" font-size="14.00">supplier_id</text>
<text text-anchor="middle" x="1037.5" y="-553.3" font-family="Times,serif" font-size="14.00">product_id</text>
<text text-anchor="middle" x="1037.5" y="-538.3" font-family="Times,serif" font-size="14.00">quantity_min</text>
<text text-anchor="middle" x="1037.5" y="-523.3" font-family="Times,serif" font-size="14.00">quantity_max</text>
<text text-anchor="middle" x="1037.5" y="-508.3" font-family="Times,serif" font-size="14.00">unit_price</text>
<text text-anchor="middle" x="1037.5" y="-493.3" font-family="Times,serif" font-size="14.00">discount_percent</text>
<text text-anchor="middle" x="1037.5" y="-478.3" font-family="Times,serif" font-size="14.00">discount_amount</text>
</g>
<!-- purchase_conditions&#45;&gt;suppliers -->
<g id="edge3" class="edge">
<title>purchase_conditions&#45;&gt;suppliers</title>
<path fill="none" stroke="black" d="M989.59,-470.3C943.95,-403.02 873.23,-298.98 811.5,-209 805.39,-200.1 799.02,-190.83 792.64,-181.57"/>
<polygon fill="black" stroke="black" points="795.34,-179.32 786.78,-173.08 789.57,-183.3 795.34,-179.32"/>
</g>
<!-- purchase_conditions&#45;&gt;products -->
<g id="edge4" class="edge">
<title>purchase_conditions&#45;&gt;products</title>
<path fill="none" stroke="black" d="M975.99,-470.42C966.95,-462.21 957.36,-454.48 947.5,-448 862.44,-392.07 751.19,-354.45 674.8,-333.11"/>
<polygon fill="black" stroke="black" points="675.3,-329.61 664.73,-330.33 673.44,-336.36 675.3,-329.61"/>
</g>
<!-- purchases -->
<g id="node5" class="node">
<title>purchases</title>
<polygon fill="none" stroke="black" points="322.5,-389.5 178.5,-389.5 178.5,-231.5 322.5,-231.5 322.5,-389.5"/>
<text text-anchor="middle" x="250.5" y="-374.3" font-family="Times,serif" font-size="14.00">purchases</text>
<text text-anchor="middle" x="250.5" y="-359.3" font-family="Times,serif" font-size="14.00">id</text>
<text text-anchor="middle" x="250.5" y="-344.3" font-family="Times,serif" font-size="14.00">purchase_number</text>
<text text-anchor="middle" x="250.5" y="-329.3" font-family="Times,serif" font-size="14.00">supplier_id</text>
<text text-anchor="middle" x="250.5" y="-314.3" font-family="Times,serif" font-size="14.00">order_date</text>
<text text-anchor="middle" x="250.5" y="-299.3" font-family="Times,serif" font-size="14.00">delivery_date</text>
<text text-anchor="middle" x="250.5" y="-284.3" font-family="Times,serif" font-size="14.00">status</text>
<text text-anchor="middle" x="250.5" y="-269.3" font-family="Times,serif" font-size="14.00">currency</text>
<text text-anchor="middle" x="250.5" y="-254.3" font-family="Times,serif" font-size="14.00">subtotal</text>
<text text-anchor="middle" x="250.5" y="-239.3" font-family="Times,serif" font-size="14.00">total_amount</text>
</g>
<!-- purchases&#45;&gt;suppliers -->
<g id="edge5" class="edge">
<title>purchases&#45;&gt;suppliers</title>
<path fill="none" stroke="black" d="M322.55,-277.44C371.77,-256.28 438.81,-228.9 499.5,-209 560.96,-188.85 584.16,-204.76 640.5,-173 645.52,-170.17 650.46,-166.97 655.28,-163.52"/>
<polygon fill="black" stroke="black" points="657.39,-166.31 663.26,-157.49 653.17,-160.73 657.39,-166.31"/>
</g>
<!-- purchase_items -->
<g id="node6" class="node">
<title>purchase_items</title>
<polygon fill="none" stroke="black" points="139,-621 0,-621 0,-463 139,-463 139,-621"/>
<text text-anchor="middle" x="69.5" y="-605.8" font-family="Times,serif" font-size="14.00">purchase_items</text>
<text text-anchor="middle" x="69.5" y="-590.8" font-family="Times,serif" font-size="14.00">id</text>
<text text-anchor="middle" x="69.5" y="-575.8" font-family="Times,serif" font-size="14.00">purchase_id</text>
<text text-anchor="middle" x="69.5" y="-560.8" font-family="Times,serif" font-size="14.00">product_id</text>
<text text-anchor="middle" x="69.5" y="-545.8" font-family="Times,serif" font-size="14.00">quantity</text>
<text text-anchor="middle" x="69.5" y="-530.8" font-family="Times,serif" font-size="14.00">unit_price</text>
<text text-anchor="middle" x="69.5" y="-515.8" font-family="Times,serif" font-size="14.00">discount_percent</text>
<text text-anchor="middle" x="69.5" y="-500.8" font-family="Times,serif" font-size="14.00">tax_rate</text>
<text text-anchor="middle" x="69.5" y="-485.8" font-family="Times,serif" font-size="14.00">subtotal</text>
<text text-anchor="middle" x="69.5" y="-470.8" font-family="Times,serif" font-size="14.00">total</text>
</g>
<!-- purchase_items&#45;&gt;products -->
<g id="edge7" class="edge">
<title>purchase_items&#45;&gt;products</title>
<path fill="none" stroke="black" d="M128.2,-462.83C134.58,-457.24 141.37,-452.18 148.5,-448 220,-406.06 251.95,-435.29 331.5,-412 388.45,-395.32 450.43,-371.05 499.03,-350.53"/>
<polygon fill="black" stroke="black" points="500.41,-353.74 508.25,-346.61 497.68,-347.3 500.41,-353.74"/>
</g>
<!-- purchase_items&#45;&gt;purchases -->
<g id="edge6" class="edge">
<title>purchase_items&#45;&gt;purchases</title>
<path fill="none" stroke="black" d="M131.03,-462.98C147.57,-442.01 165.55,-419.21 182.42,-397.82"/>
<polygon fill="black" stroke="black" points="185.39,-399.71 188.83,-389.69 179.89,-395.38 185.39,-399.71"/>
</g>
<!-- stocks -->
<g id="node7" class="node">
<title>stocks</title>
<polygon fill="none" stroke="black" points="315.5,-628.5 157.5,-628.5 157.5,-455.5 315.5,-455.5 315.5,-628.5"/>
<text text-anchor="middle" x="236.5" y="-613.3" font-family="Times,serif" font-size="14.00">stocks</text>
<text text-anchor="middle" x="236.5" y="-598.3" font-family="Times,serif" font-size="14.00">id</text>
<text text-anchor="middle" x="236.5" y="-583.3" font-family="Times,serif" font-size="14.00">product_id</text>
<text text-anchor="middle" x="236.5" y="-568.3" font-family="Times,serif" font-size="14.00">quantity_on_hand</text>
<text text-anchor="middle" x="236.5" y="-553.3" font-family="Times,serif" font-size="14.00">quantity_reserved</text>
<text text-anchor="middle" x="236.5" y="-538.3" font-family="Times,serif" font-size="14.00">reorder_point</text>
<text text-anchor="middle" x="236.5" y="-523.3" font-family="Times,serif" font-size="14.00">reorder_quantity</text>
<text text-anchor="middle" x="236.5" y="-508.3" font-family="Times,serif" font-size="14.00">location</text>
<text text-anchor="middle" x="236.5" y="-493.3" font-family="Times,serif" font-size="14.00">last_purchase_date</text>
<text text-anchor="middle" x="236.5" y="-478.3" font-family="Times,serif" font-size="14.00">last_purchase_price</text>
<text text-anchor="middle" x="236.5" y="-463.3" font-family="Times,serif" font-size="14.00">average_cost</text>
</g>
<!-- stocks&#45;&gt;products -->
<g id="edge8" class="edge">
<title>stocks&#45;&gt;products</title>
<path fill="none" stroke="black" d="M315.24,-455.35C318.3,-452.8 321.4,-450.34 324.5,-448 378.27,-407.41 445.85,-372.53 498.9,-348.19"/>
<polygon fill="black" stroke="black" points="500.64,-351.25 508.29,-343.93 497.74,-344.88 500.64,-351.25"/>
</g>
<!-- stock_movements -->
<g id="node8" class="node">
<title>stock_movements</title>
<polygon fill="none" stroke="black" points="479.5,-613.5 333.5,-613.5 333.5,-470.5 479.5,-470.5 479.5,-613.5"/>
<text text-anchor="middle" x="406.5" y="-598.3" font-family="Times,serif" font-size="14.00">stock_movements</text>
<text text-anchor="middle" x="406.5" y="-583.3" font-family="Times,serif" font-size="14.00">id</text>
<text text-anchor="middle" x="406.5" y="-568.3" font-family="Times,serif" font-size="14.00">product_id</text>
<text text-anchor="middle" x="406.5" y="-553.3" font-family="Times,serif" font-size="14.00">movement_type</text>
<text text-anchor="middle" x="406.5" y="-538.3" font-family="Times,serif" font-size="14.00">movement_reason</text>
<text text-anchor="middle" x="406.5" y="-523.3" font-family="Times,serif" font-size="14.00">reference_type</text>
<text text-anchor="middle" x="406.5" y="-508.3" font-family="Times,serif" font-size="14.00">reference_id</text>
<text text-anchor="middle" x="406.5" y="-493.3" font-family="Times,serif" font-size="14.00">quantity</text>
<text text-anchor="middle" x="406.5" y="-478.3" font-family="Times,serif" font-size="14.00">unit_cost</text>
</g>
<!-- stock_movements&#45;&gt;products -->
<g id="edge9" class="edge">
<title>stock_movements&#45;&gt;products</title>
<path fill="none" stroke="black" d="M461.97,-470.27C474.69,-454.05 488.5,-436.45 502.13,-419.07"/>
<polygon fill="black" stroke="black" points="504.96,-421.13 508.38,-411.11 499.45,-416.81 504.96,-421.13"/>
</g>
<!-- shopify_prices -->
<g id="node9" class="node">
<title>shopify_prices</title>
<polygon fill="none" stroke="black" points="649,-606 498,-606 498,-478 649,-478 649,-606"/>
<text text-anchor="middle" x="573.5" y="-590.8" font-family="Times,serif" font-size="14.00">shopify_prices</text>
<text text-anchor="middle" x="573.5" y="-575.8" font-family="Times,serif" font-size="14.00">id</text>
<text text-anchor="middle" x="573.5" y="-560.8" font-family="Times,serif" font-size="14.00">product_id</text>
<text text-anchor="middle" x="573.5" y="-545.8" font-family="Times,serif" font-size="14.00">shopify_product_id</text>
<text text-anchor="middle" x="573.5" y="-530.8" font-family="Times,serif" font-size="14.00">shopify_variant_id</text>
<text text-anchor="middle" x="573.5" y="-515.8" font-family="Times,serif" font-size="14.00">selling_price</text>
<text text-anchor="middle" x="573.5" y="-500.8" font-family="Times,serif" font-size="14.00">compare_at_price</text>
<text text-anchor="middle" x="573.5" y="-485.8" font-family="Times,serif" font-size="14.00">currency</text>
</g>
<!-- shopify_prices&#45;&gt;products -->
<g id="edge10" class="edge">
<title>shopify_prices&#45;&gt;products</title>
<path fill="none" stroke="black" d="M577.07,-477.98C578.04,-460.77 579.13,-441.6 580.21,-422.56"/>
<polygon fill="black" stroke="black" points="583.72,-422.51 580.79,-412.32 576.73,-422.11 583.72,-422.51"/>
</g>
<!-- scraped_data -->
<g id="node10" class="node">
<title>scraped_data</title>
<polygon fill="none" stroke="black" points="788,-636 667,-636 667,-448 788,-448 788,-636"/>
<text text-anchor="middle" x="727.5" y="-620.8" font-family="Times,serif" font-size="14.00">scraped_data</text>
<text text-anchor="middle" x="727.5" y="-605.8" font-family="Times,serif" font-size="14.00">id</text>
<text text-anchor="middle" x="727.5" y="-590.8" font-family="Times,serif" font-size="14.00">supplier_id</text>
<text text-anchor="middle" x="727.5" y="-575.8" font-family="Times,serif" font-size="14.00">product_id</text>
<text text-anchor="middle" x="727.5" y="-560.8" font-family="Times,serif" font-size="14.00">source_url</text>
<text text-anchor="middle" x="727.5" y="-545.8" font-family="Times,serif" font-size="14.00">source_type</text>
<text text-anchor="middle" x="727.5" y="-530.8" font-family="Times,serif" font-size="14.00">supplier_ref</text>
<text text-anchor="middle" x="727.5" y="-515.8" font-family="Times,serif" font-size="14.00">product_name</text>
<text text-anchor="middle" x="727.5" y="-500.8" font-family="Times,serif" font-size="14.00">price</text>
<text text-anchor="middle" x="727.5" y="-485.8" font-family="Times,serif" font-size="14.00">currency</text>
<text text-anchor="middle" x="727.5" y="-470.8" font-family="Times,serif" font-size="14.00">availability</text>
<text text-anchor="middle" x="727.5" y="-455.8" font-family="Times,serif" font-size="14.00">stock_quantity</text>
</g>
<!-- scraped_data&#45;&gt;suppliers -->
<g id="edge11" class="edge">
<title>scraped_data&#45;&gt;suppliers</title>
<path fill="none" stroke="black" d="M727.5,-447.86C727.5,-370.71 727.5,-261.48 727.5,-183.54"/>
<polygon fill="black" stroke="black" points="731,-183.23 727.5,-173.23 724,-183.23 731,-183.23"/>
</g>
<!-- scraped_data&#45;&gt;products -->
<g id="edge12" class="edge">
<title>scraped_data&#45;&gt;products</title>
<path fill="none" stroke="black" d="M670.35,-447.98C664.86,-439.04 659.25,-429.91 653.67,-420.83"/>
<polygon fill="black" stroke="black" points="656.55,-418.83 648.33,-412.14 650.58,-422.49 656.55,-418.83"/>
</g>
<!-- margin_analysis -->
<g id="node11" class="node">
<title>margin_analysis</title>
<polygon fill="none" stroke="black" points="938.5,-621 806.5,-621 806.5,-463 938.5,-463 938.5,-621"/>
<text text-anchor="middle" x="872.5" y="-605.8" font-family="Times,serif" font-size="14.00">margin_analysis</text>
<text text-anchor="middle" x="872.5" y="-590.8" font-family="Times,serif" font-size="14.00">id</text>
<text text-anchor="middle" x="872.5" y="-575.8" font-family="Times,serif" font-size="14.00">product_id</text>
<text text-anchor="middle" x="872.5" y="-560.8" font-family="Times,serif" font-size="14.00">supplier_id</text>
<text text-anchor="middle" x="872.5" y="-545.8" font-family="Times,serif" font-size="14.00">purchase_price</text>
<text text-anchor="middle" x="872.5" y="-530.8" font-family="Times,serif" font-size="14.00">selling_price</text>
<text text-anchor="middle" x="872.5" y="-515.8" font-family="Times,serif" font-size="14.00">stock_quantity</text>
<text text-anchor="middle" x="872.5" y="-500.8" font-family="Times,serif" font-size="14.00">margin_amount</text>
<text text-anchor="middle" x="872.5" y="-485.8" font-family="Times,serif" font-size="14.00">margin_percent</text>
<text text-anchor="middle" x="872.5" y="-470.8" font-family="Times,serif" font-size="14.00">potential_profit</text>
</g>
<!-- margin_analysis&#45;&gt;suppliers -->
<g id="edge14" class="edge">
<title>margin_analysis&#45;&gt;suppliers</title>
<path fill="none" stroke="black" d="M847.49,-462.78C822.67,-385.15 784.59,-266.06 758.01,-182.91"/>
<polygon fill="black" stroke="black" points="761.28,-181.67 754.9,-173.21 754.62,-183.8 761.28,-181.67"/>
</g>
<!-- margin_analysis&#45;&gt;products -->
<g id="edge13" class="edge">
<title>margin_analysis&#45;&gt;products</title>
<path fill="none" stroke="black" d="M812.5,-462.67C807.61,-457.53 802.59,-452.58 797.5,-448 759.97,-414.2 713.24,-383.06 673.3,-359.08"/>
<polygon fill="black" stroke="black" points="675.01,-356.03 664.63,-353.92 671.43,-362.04 675.01,-356.03"/>
</g>
</g>
</svg>
